<?xml version="1.0" encoding="UTF-8"?>
<svg width="512px" height="336px" viewBox="0 0 512 336" version="1.1" xmlns="http://www.w3.org/2000/svg" xmlns:xlink="http://www.w3.org/1999/xlink">
    <!-- Generator: Sketch 52.4 (67378) - http://www.bohemiancoding.com/sketch -->
    <title>jp</title>
    <desc>Created with Sketch.</desc>
    <g id="Page-1" stroke="none" stroke-width="1" fill="none" fill-rule="evenodd">
        <g id="jp">
            <path d="M473.655,0.275 L38.345,0.275 C17.167,0.275 0,17.442 0,38.62 L0,297.38 C0,318.557 17.167,335.725 38.345,335.725 L473.655,335.725 C494.832,335.725 512,318.558 512,297.38 L512,38.62 C512,17.442 494.833,0.275 473.655,0.275 Z" id="Path" fill="#F5F5F5"></path>
            <g id="Group" transform="translate(102.000000, 16.000000)">
                <path d="M309,137.383815 C309,93.9604448 275.466639,58.3483661 232.768116,54.8727802 C221.273313,22.8715141 190.555233,0 154.504243,0 C118.435629,0 87.7449634,22.8721642 76.2495083,54.8727802 C33.550332,58.3483661 0,93.9604448 0,137.383815 C0,162.879897 11.6031577,185.698101 29.8270865,200.874696 C28.1717305,207.370128 27.2990133,214.197126 27.2990133,221.202258 C27.2990133,266.928383 64.5112329,304 110.429737,304 C126.621025,304 141.732023,299.395141 154.504243,291.413516 C167.277116,299.395141 182.37049,304 198.587887,304 C244.488767,304 281.710778,266.928383 281.710778,221.202258 C281.710778,214.197776 280.836755,207.370778 279.182052,200.874696 C297.397495,185.698101 309,162.880547 309,137.383815 Z" id="Path" fill="#FFFFFF"></path>
                <path d="M155.490528,82 C134.238201,82 117,99.0245881 117,119.986459 C117,140.98315 134.238201,158 155.490528,158 C176.761799,158 194,140.98315 194,119.986459 C194,99.0245881 176.761799,82 155.490528,82 Z M155.481383,138.318101 C145.237362,138.318101 136.929527,130.124349 136.929527,119.985814 C136.929527,109.882744 145.238015,101.663199 155.481383,101.663199 C165.743695,101.663199 174.060674,109.882099 174.060674,119.985814 C174.061328,130.124349 165.743695,138.318101 155.481383,138.318101 Z" id="Shape" fill="#003283"></path>
                <path d="M309,137.383815 C309,93.9604448 275.466639,58.3483661 232.768116,54.8727802 C221.273313,22.8715141 190.555233,0 154.504243,0 C118.435629,0 87.7449634,22.8721642 76.2495083,54.8727802 C33.550332,58.3483661 0,93.9604448 0,137.383815 C0,162.879897 11.6031577,185.698101 29.8270865,200.874696 C28.1717305,207.370128 27.2990133,214.197126 27.2990133,221.202258 C27.2990133,266.928383 64.5112329,304 110.429737,304 C126.621025,304 141.732023,299.395141 154.504243,291.413516 C167.277116,299.395141 182.37049,304 198.587887,304 C244.488767,304 281.710778,266.928383 281.710778,221.202258 C281.710778,214.197776 280.836755,207.370778 279.182052,200.874696 C297.397495,185.698101 309,162.880547 309,137.383815 Z M264.646773,193.206433 C268.326285,201.627545 270.358273,210.899675 270.358273,220.663952 C270.358273,258.775124 239.352986,289.647767 201.098336,289.647767 C183.863965,289.647767 168.078031,283.367528 155.961818,272.99343 C143.837118,283.367528 128.068808,289.647767 110.825952,289.647767 C72.561511,289.647767 41.565362,258.775124 41.565362,220.663952 C41.565362,211.320958 43.4452615,202.4155 46.8186368,194.272643 C27.2813892,182.060633 14.2748343,160.443216 14.2748343,135.779299 C14.2748343,97.6772284 45.2709834,66.7961334 83.5269388,66.7961334 C84.9662369,66.7961334 86.3689814,66.8234388 87.7723786,66.9398118 C95.3631257,37.0436612 122.545951,14.9249957 154.909596,14.9249957 C187.26345,14.9249957 214.446275,37.0436612 222.037675,66.9398118 C223.44042,66.8234388 224.871885,66.7961334 226.283768,66.7961334 C264.539071,66.7961334 295.543705,97.6772284 295.543705,135.779299 C295.543705,159.717673 283.257126,180.833841 264.646773,193.206433 Z" id="Shape" fill="#003283"></path>
                <path d="M286,138.155641 C286,103.26751 257.678844,75.0143741 222.705915,75.0143741 C220.713119,75.0143741 218.694924,75.1306635 216.729479,75.2917796 C210.420259,47.0652795 185.157981,26 154.978835,26 C124.78992,26 99.5361078,47.0652795 93.2360052,75.2917796 C91.2796781,75.1306635 89.2875327,75.0143741 87.2953874,75.0143741 C52.3224586,75.0143741 24,103.26751 24,138.155641 C24,161.486291 36.6985427,181.86033 55.6066655,192.792837 C52.2508221,200.491328 50.3843662,208.934331 50.3843662,217.858733 C50.3843662,252.746214 78.7426431,281 113.68822,281 C129.9497,281 144.783661,274.867844 156.001283,264.823425 C167.210438,274.867844 182.043747,281 198.305879,281 C233.250805,281 261.573915,252.746214 261.573915,217.858733 C261.573915,208.602354 259.581118,199.792941 255.964127,191.843681 C274.002844,180.733167 286,160.850272 286,138.155641 Z M245.222563,187.868401 C250.948271,196.596606 254.28588,207.008733 254.28588,218.199156 C254.28588,248.816411 229.409787,273.631537 198.727232,273.631537 C181.397717,273.631537 165.962009,265.744645 155.768138,253.382233 C145.572965,265.744645 130.119674,273.631537 112.817511,273.631537 C82.1082551,273.631537 57.2315111,248.816411 57.2315111,218.199156 C57.2315111,207.339411 60.3724451,197.187798 65.7836041,188.629155 C45.8966665,180.204343 31.9327631,160.5092 31.9327631,137.60018 C31.9327631,106.965384 56.8088559,82.1489585 87.5187629,82.1489585 C91.8892394,82.1489585 96.1704958,82.6764838 100.279825,83.6353844 C103.170031,55.7395621 126.807464,33.9758963 155.542809,33.9758963 C184.143348,33.9758963 207.700027,55.5427146 210.760207,83.2676759 C214.350497,82.5426535 218.046939,82.1489585 221.834555,82.1489585 C252.516459,82.1489585 277.393854,106.964735 277.393854,137.60018 C277.394505,159.865385 264.23814,179.059639 245.222563,187.868401 Z" id="Shape" fill="#E41F20"></path>
                <polygon id="Path" fill="#FFFFFF" points="151 99 161 99 156.236938 84"></polygon>
                <polygon id="Path" fill="#FFFFFF" points="140.898094 104 149 98.9548321 138 88"></polygon>
                <polygon id="Path" fill="#FFFFFF" points="135.18196 113 140 104.43855 125 101"></polygon>
                <polygon id="Path" fill="#FFFFFF" points="135 124 135 114 120 118.762387"></polygon>
                <polygon id="Path" fill="#FFFFFF" points="140 134.108423 134.936225 126 124 137"></polygon>
                <polygon id="Path" fill="#FFFFFF" points="149 139.809592 140.46785 135 137 150"></polygon>
                <polygon id="Path" fill="#FFFFFF" points="161 140 151 140 155.77216 155"></polygon>
                <polygon id="Path" fill="#FFFFFF" points="170.113234 135 162 140.05468 173 151"></polygon>
                <polygon id="Path" fill="#FFFFFF" points="176.794236 127 172 134.841251 187 138"></polygon>
                <polygon id="Path" fill="#FFFFFF" points="177 115 177 125 192 120.237613"></polygon>
                <polygon id="Path" fill="#FFFFFF" points="172 104.891411 177.053998 113 188 102"></polygon>
                <polygon id="Path" fill="#FFFFFF" points="162 99.1917078 170.554568 104 174 89"></polygon>
                <path d="M128,195.500326 C128,181.959642 117.0492,171 103.499674,171 C89.9592815,171 79,181.959642 79,195.500326 C79,209.039705 89.9592815,220 103.499674,220 C104.2376,220 104.938336,219.972598 105.639725,219.918445 C105.585571,219.27188 105.558821,218.62401 105.558821,217.976792 C105.558821,217.248672 105.585571,216.511418 105.639725,215.810048 C104.938336,215.900736 104.2376,215.926834 103.499674,215.926834 C92.234391,215.926834 83.082409,206.793364 83.082409,195.500326 C83.082409,184.234039 92.234391,175.073166 103.499674,175.073166 C114.800842,175.073166 123.927378,184.234039 123.927378,195.500326 C123.927378,204.571162 118.029187,212.240563 109.857192,214.910336 C109.713,215.900736 109.632095,216.934197 109.632095,217.976792 C109.632095,218.398266 109.658846,218.821046 109.667328,219.208594 C120.223392,216.484668 128,206.909498 128,195.500326 Z" id="Path" fill="#0083CE"></path>
                <path d="M235,195.500326 C235,209.039705 224.029187,220 210.454898,220 C197.619884,220 187.100088,210.190605 186,197.657936 C187.45894,197.802125 188.864935,198.107466 190.216024,198.557647 C191.710915,208.39314 200.213556,215.926834 210.454898,215.926834 C221.777373,215.926834 230.919935,206.793364 230.919935,195.500326 C230.919935,184.234039 221.778027,175.073166 210.454898,175.073166 C199.592591,175.073166 190.701683,183.560071 190.052612,194.231336 C188.72963,193.899245 187.377888,193.674154 186,193.557368 C186.982432,180.94445 197.565632,171 210.454898,171 C224.029187,171.000652 235,181.960295 235,195.500326 Z" id="Path" fill="#E61446"></path>
                <path d="M203.949161,218.727397 C203.301236,229.451387 194.41643,237.919548 183.526453,237.919548 C172.247851,237.919548 163.095253,228.776856 163.095253,217.49576 C163.095253,208.416346 168.999733,200.747966 177.173258,198.078548 C177.316298,197.071319 177.397289,196.06409 177.397289,195.021634 C177.397289,194.598911 177.397289,194.17684 177.371163,193.753465 C166.803842,196.512907 159,206.087455 159,217.49576 C159,231.024856 169.989909,242 183.527106,242 C196.41507,242 206.982392,232.058179 208,219.436502 C206.59442,219.320384 205.244358,219.095975 203.949161,218.727397 Z M183.526453,197.071972 C193.79659,197.071972 202.292118,204.605315 203.750603,214.429713 C205.100012,214.879182 206.504939,215.194267 207.972568,215.329304 C206.873969,202.807437 196.352368,193 183.526453,193 C182.824316,193 182.122832,193.026094 181.419389,193.080239 C181.474254,193.727371 181.474254,194.375155 181.474254,195.022939 C181.474254,195.75031 181.446822,196.478333 181.393263,197.180262 C182.0954,197.098718 182.824316,197.071972 183.526453,197.071972 Z" id="Shape" fill="#009C45" fill-rule="nonzero"></path>
                <path d="M155,219.437103 C154.00092,232.058444 143.42139,242 130.535938,242 C116.967009,242 106,231.025148 106,217.496412 C106,206.089063 113.788118,196.514771 124.359155,193.754749 C124.386598,194.178114 124.395746,194.600173 124.395746,195.022885 C124.395746,196.065313 124.314722,197.072515 124.170969,198.079718 C115.986225,200.749065 110.079304,208.41724 110.079304,217.496412 C110.079304,228.777208 119.236992,237.919657 130.536592,237.919657 C141.395786,237.919657 150.3006,229.452373 150.949447,218.755415 C152.254327,219.095933 153.605601,219.320335 155,219.437103 Z M128.393372,197.18015 C128.447606,196.478892 128.474397,195.750889 128.474397,195.022885 C128.474397,194.37577 128.474397,193.728004 128.411668,193.080237 C129.113442,193.026093 129.815869,193 130.535938,193 C143.367156,193 153.883958,202.807176 154.983011,215.328709 C153.524577,215.193676 152.110575,214.879252 150.759955,214.429142 C149.283224,204.604353 140.80052,197.071863 130.535938,197.071863 C129.815869,197.072515 129.095799,197.099261 128.393372,197.18015 Z" id="Shape" fill="#F7B000" fill-rule="nonzero"></path>
                <path d="M157.454915,215.92678 C147.181459,215.92678 138.699635,208.392986 137.223597,198.557362 C135.87236,198.107827 134.468197,197.80183 133,197.657639 C134.09837,210.190474 144.624693,220 157.454915,220 C158.157323,220 158.868879,219.972597 159.579782,219.918444 C159.517055,219.27187 159.488959,218.623991 159.488959,217.976765 C159.488959,217.248635 159.534044,216.511371 159.588276,215.809992 C158.885868,215.900682 158.18346,215.92678 157.454915,215.92678 Z M157.454915,171 C144.552166,171 133.981411,180.944582 133,193.557668 C134.377374,193.675109 135.727958,193.89955 137.043258,194.231645 C137.700581,183.560238 146.586863,175.07322 157.454915,175.07322 C168.746373,175.07322 177.893362,184.234215 177.893362,195.500652 C177.893362,204.571609 171.9964,212.241112 163.820368,214.910921 C163.667471,215.901334 163.586449,216.934809 163.586449,217.977417 C163.586449,218.398897 163.586449,218.821683 163.613892,219.209235 C174.193141,216.484621 182,206.909323 182,195.500652 C182,181.959788 170.997346,171 157.454915,171 Z" id="Shape" fill="#000006" fill-rule="nonzero"></path>
            </g>
        </g>
    </g>
</svg>